<?xml version="1.0" encoding="UTF-8"?>
<svg fill="white" xmlns="http://www.w3.org/2000/svg" xmlns:xlink="http://www.w3.org/1999/xlink" width="261pt" height="113pt" viewBox="0 0 261 113" version="1.1">
<g id="surface1">
<path style=" stroke:none;" d="M 252.394531 52.828125 L 226.222656 52.828125 C 221.488281 52.828125 217.628906 56.691406 217.628906 61.421875 L 217.628906 83.964844 C 217.628906 88.699219 221.488281 92.558594 226.222656 92.558594 L 252.394531 92.558594 C 257.128906 92.558594 260.988281 88.699219 260.988281 83.964844 L 260.988281 61.421875 C 260.988281 56.691406 257.128906 52.828125 252.394531 52.828125 Z M 156.242188 23.1875 L 153.023438 23.1875 L 153.023438 22.625 C 153.90625 22.640625 154.464844 22.453125 154.074219 21.675781 C 153.476563 20.507813 156.054688 20.570313 156.433594 20.824219 C 157.109375 21.269531 156.664063 22.5625 156.242188 23.1875 Z M 151.839844 23.96875 L 155.742188 23.96875 C 155.308594 24.625 154.09375 26.835938 153.308594 26.839844 C 152.992188 26.398438 151.953125 24.964844 151.839844 23.96875 Z M 226.359375 61.425781 L 252.253906 61.425781 L 252.253906 83.964844 L 226.359375 83.964844 Z M 173.222656 61.425781 L 209.253906 61.425781 L 209.253906 61.421875 C 209.253906 56.691406 205.394531 52.828125 200.660156 52.828125 L 172.996094 52.828125 C 168.265625 52.828125 164.402344 56.691406 164.402344 61.421875 L 164.402344 83.964844 C 164.402344 88.699219 168.265625 92.558594 172.996094 92.558594 L 200.660156 92.558594 C 205.394531 92.558594 209.253906 88.699219 209.253906 83.964844 L 209.253906 69.089844 L 180.011719 69.089844 C 180.011719 72.75 182.992188 75.730469 186.652344 75.730469 L 201.054688 75.730469 L 201.054688 83.964844 L 173.222656 83.964844 Z M 60.703125 61.425781 L 95.101563 61.425781 L 95.101563 61.421875 C 95.101563 56.691406 91.238281 52.828125 86.503906 52.828125 L 59.882813 52.828125 C 55.148438 52.828125 51.289063 56.691406 51.289063 61.421875 L 51.289063 68.394531 C 51.289063 73.128906 55.148438 76.992188 59.882813 76.992188 L 86.578125 76.992188 L 86.578125 83.964844 L 51.289063 83.964844 C 51.289063 88.699219 55.148438 92.558594 59.882813 92.558594 L 87.394531 92.558594 C 92.128906 92.558594 95.992188 88.699219 95.992188 83.964844 L 95.992188 76.992188 C 95.992188 72.257813 92.128906 68.394531 87.394531 68.394531 L 60.703125 68.394531 Z M 11.175781 61.425781 L 43.648438 61.425781 L 43.648438 61.421875 C 43.648438 56.691406 39.785156 52.828125 35.050781 52.828125 L 8.882813 52.828125 C 4.148438 52.828125 0.289063 56.691406 0.289063 61.421875 L 0.289063 83.964844 C 0.289063 88.699219 4.148438 92.558594 8.882813 92.558594 L 35.050781 92.558594 C 39.785156 92.558594 43.648438 88.699219 43.648438 83.964844 L 11.175781 83.964844 Z M 164.515625 19.273438 C 164.34375 19.359375 164.148438 19.445313 163.871094 19.496094 C 162.644531 21.234375 163.382813 21.03125 161.21875 22.480469 C 161.222656 25.390625 161.308594 25.707031 161.988281 28.285156 C 162.007813 28.347656 161.996094 28.40625 161.964844 28.460938 C 161.929688 28.515625 161.882813 28.550781 161.820313 28.5625 C 161.296875 28.675781 160.542969 28.867188 160.109375 28.949219 C 160.121094 29.042969 160.328125 30.691406 160.09375 31.917969 C 159.730469 33.84375 155.144531 38.0625 154.046875 38.277344 C 152.53125 38.574219 150.839844 37.238281 148.191406 36.074219 C 147.464844 35.753906 145.015625 34.144531 143.734375 33.71875 C 142.671875 33.363281 141.605469 35.953125 142.925781 36.644531 C 143.539063 36.96875 144.519531 37.40625 144.828125 38.207031 C 145.746094 40.585938 144.683594 49.765625 142.792969 51.613281 C 141.894531 51.605469 141.140625 50.78125 140.472656 50.996094 C 139.28125 51.648438 140.035156 55.289063 140.472656 55.921875 C 147.800781 63.460938 146.929688 69.042969 150.039063 73.210938 C 151.460938 73.210938 150.527344 74.714844 151.605469 76.480469 C 151.890625 77.386719 151.519531 78.925781 151.367188 79.511719 C 151.367188 80.269531 151.367188 81.027344 151.367188 81.785156 C 151.289063 82.023438 151.210938 82.257813 151.128906 82.496094 C 151.128906 83.160156 151.128906 83.820313 151.128906 84.484375 C 150.910156 85.453125 150.671875 86.753906 150.46875 87.660156 C 150.03125 89.566406 151.710938 91.050781 150.703125 92.867188 C 150.703125 93.984375 150.707031 93.761719 150.039063 94.667969 C 150.039063 96.402344 149.632813 100.058594 150.039063 101.347656 C 150.324219 102.246094 153.582031 106.050781 154.398438 106.417969 C 156.367188 107.292969 159.269531 107.105469 158.328125 110.207031 C 152.566406 111.976563 148.886719 109.207031 145.8125 109.164063 L 145.671875 109.691406 C 143.703125 109.695313 142.132813 109.210938 141.703125 109.070313 C 141.699219 108.539063 142.339844 104.460938 142.554688 103.8125 C 142.777344 103.464844 142.996094 103.117188 143.21875 102.769531 C 143.457031 102.074219 142.976563 96.984375 142.933594 95.617188 C 141.707031 94.714844 141.46875 91.964844 141.46875 90.453125 C 141.113281 89.285156 141.113281 87.898438 141.039063 86.378906 C 141.007813 85.667969 140.582031 84.621094 140.851563 83.726563 C 141.035156 83.117188 141.722656 82.851563 141.894531 82.351563 C 141.894531 81.785156 141.894531 81.214844 141.894531 80.648438 C 142.21875 78.855469 142.117188 78.027344 141.039063 76.953125 C 138.34375 76.988281 137.972656 77.117188 136.492188 74.820313 C 136.03125 74.109375 132.261719 68.160156 131.898438 68 C 128.761719 66.632813 129.386719 67.164063 128.015625 64.734375 C 127.957031 64.734375 127.121094 65.011719 126.386719 66.117188 C 125.261719 67.792969 123.277344 73.242188 122.710938 75.152344 C 122.394531 76.21875 122.710938 77.398438 122.234375 78.28125 C 121.890625 78.917969 120.773438 79.125 120.53125 79.558594 C 119.429688 81.539063 120.253906 81.382813 118.160156 82.78125 C 117.785156 83.265625 117.773438 83.992188 117.5 84.578125 C 117.339844 84.800781 117.183594 85.023438 117.023438 85.242188 C 116.671875 86 117.398438 87.375 117.261719 87.847656 C 116.898438 89.089844 116.421875 90.339844 115.9375 91.496094 C 114.976563 93.773438 115.101563 96.796875 114.132813 98.195313 C 113.648438 98.898438 112.472656 98.210938 111.578125 98.789063 C 111.527344 99.277344 110.105469 102.527344 109.824219 103.433594 C 109.824219 105.152344 109.824219 106.875 109.824219 108.59375 C 110.09375 109.464844 110.828125 110.292969 110.609375 111.394531 C 110.375 112.566406 106.296875 112.550781 104.082031 112.230469 C 102.601563 112.015625 102.15625 110.925781 102.179688 109.660156 C 102.210938 108.171875 105.222656 98.484375 105.039063 97.84375 C 102.753906 95.265625 105.652344 92.617188 106.511719 90.214844 C 106.925781 89.046875 106.671875 87.414063 107.125 86.332031 C 107.929688 84.863281 108.734375 83.394531 109.539063 81.925781 C 111.011719 80.539063 110.355469 80.46875 111.152344 79.226563 C 111.84375 78.148438 112.679688 77.421875 112.195313 75.769531 C 111.21875 72.445313 113.332031 67.734375 113.472656 64.257813 C 113.097656 63.863281 111.824219 63.988281 111.664063 62.929688 C 111.34375 60.769531 112.484375 56.949219 113.1875 56.585938 C 113.5 56.425781 113.859375 56.566406 114.136719 56.394531 C 114.136719 54.777344 112.527344 45.769531 113.75 45.3125 C 114.503906 45.03125 116.234375 44.882813 116.570313 44.730469 C 116.550781 44.347656 116.285156 43.527344 115.96875 43.484375 C 115.429688 43.410156 114.328125 43.203125 113.449219 43 C 110.757813 42.378906 113.25 31.761719 113.28125 31.71875 C 114.023438 30.738281 117.460938 32.058594 117.878906 30.390625 C 119.027344 28.925781 116.992188 23.285156 120.914063 16.339844 C 122.238281 13.992188 124.773438 11.625 127.730469 12.628906 C 128.722656 12.964844 128.121094 14.390625 129.863281 12.867188 C 129.90625 11.976563 129.492188 11.230469 129.246094 10.496094 C 126.351563 1.859375 136.160156 -2.824219 143.03125 2.113281 C 143.800781 2.425781 144.253906 2.578125 144.828125 3.011719 C 145.207031 4.96875 147.148438 8.449219 145.210938 10.734375 C 144.414063 10.902344 143.445313 11.347656 142.839844 11.777344 C 142.828125 12.566406 142.933594 13.292969 143.078125 13.765625 C 143.207031 14.191406 143.453125 14.359375 142.816406 14.617188 C 142.734375 14.648438 142.769531 14.914063 142.8125 15.015625 C 144.417969 15.328125 146.125 14.71875 147.199219 14.285156 L 148.476563 14.285156 L 148.476563 12.671875 L 149.089844 12.671875 L 149.089844 11.410156 L 149.699219 11.410156 L 149.699219 13.59375 L 151.296875 13.59375 L 151.296875 14.285156 L 174.972656 14.285156 L 174.972656 15.515625 L 176.019531 15.515625 L 176.019531 11.015625 L 176.902344 11.015625 L 176.902344 14.675781 L 178.917969 14.675781 L 178.917969 16.765625 L 185.1875 16.765625 L 185.1875 16.144531 L 186.230469 16.144531 L 186.230469 16.414063 L 189.191406 16.414063 L 189.191406 18.15625 L 186.230469 18.15625 L 186.230469 18.429688 L 185.1875 18.429688 L 185.1875 17.808594 L 178.917969 17.808594 L 178.917969 18.429688 C 177.996094 18.429688 177.078125 18.429688 176.15625 18.429688 L 176.15625 18.007813 L 174.972656 18.007813 L 174.972656 19.273438 L 164.515625 19.273438 "/>
</g>
</svg>
